<svg width="171" height="208" viewBox="0 0 171 208" fill="none" xmlns="http://www.w3.org/2000/svg">
<g clip-path="url(#clip0_4152_1131)">
<rect width="170.5" height="208" rx="12" fill="url(#paint0_linear_4152_1131)"/>
<path d="M84.5362 191.531C62.0335 173.576 45.8375 176.184 15.7726 189.435C13.2 190.568 10.1741 189.416 9.05562 186.837L-30.1212 96.4923C-31.2298 93.9357 -30.0405 90.9595 -27.4785 89.8631C6.83419 75.1788 29.2233 66.7041 52.341 97.7267M84.5362 191.531C84.5362 191.531 57.7907 141.821 60.0963 141.325C62.402 140.828 70.9957 143.212 72.8822 133.15C74.7686 123.089 52.341 97.7267 52.341 97.7267M84.5362 191.531C112.201 177.927 129.743 176.774 152.24 184.206C155.699 185.349 159.03 181.818 157.503 178.51L119.921 97.1566C119.331 95.8795 118.22 94.9021 116.879 94.4769C87.1518 85.0504 79.223 85.6376 52.341 97.7267" stroke="#D18400" stroke-width="9.05489" stroke-linecap="round"/>
<path d="M-20.7323 105.356L-24.7402 95.7633C-24.9968 95.149 -25.129 94.4898 -25.129 93.824V92.8976C-25.129 90.6654 -23.6581 88.7002 -21.5165 88.0711L10.6234 78.6285C11.0434 78.5051 11.4778 78.437 11.9154 78.426L25.7479 78.0796C28.0697 78.0214 30.1295 79.5603 30.7321 81.8033L31.1944 83.524C32.3408 87.7913 27.8229 91.3576 23.9385 89.2515L19.4366 86.8107C16.434 85.1828 12.7166 86.9565 12.093 90.3145L11.5511 93.2322C10.8735 96.8811 6.61295 98.565 3.62373 96.3654L1.27153 94.6346C-1.13957 92.8603 -4.55711 93.5715 -6.06027 96.1603L-11.7403 105.943C-13.8282 109.538 -19.1293 109.193 -20.7323 105.356Z" fill="#D18400" stroke="#D18400" stroke-width="9.05489" stroke-linecap="round"/>
<path d="M10.6723 114.354C14.8644 120.726 31.8004 124.858 39.0947 112.093" stroke="#D18400" stroke-width="9.05489" stroke-linecap="round"/>
<path d="M38.8711 159.991C34.1455 147.869 42.4769 150.827 50.1634 147.831C57.8499 144.834 63.7099 141.453 66.7065 149.14C69.703 156.826 65.901 165.486 58.2145 168.483C50.528 171.48 41.8676 167.678 38.8711 159.991Z" fill="#D18400"/>
<path d="M81.671 138.726C87.3654 144.305 88.8453 148.457 88.9879 157.569" stroke="#D18400" stroke-width="8.38416" stroke-linecap="round"/>
<path d="M91.0095 126.618C101.057 136.43 103.619 143.402 103.204 158.023" stroke="#D18400" stroke-width="8.38416" stroke-linecap="round"/>
<path d="M96.7695 108.673C115.079 124.959 119.596 137.465 118.72 165.201" stroke="#D18400" stroke-width="8.38416" stroke-linecap="round"/>
<path d="M56.4119 53.3418C54.8533 53.3418 53.4907 53.1139 52.324 52.6582C51.1664 52.1934 50.255 51.5326 49.5896 50.6758C48.9242 49.8099 48.5505 48.7708 48.4685 47.5586L48.4548 47.3398H52.3513L52.3787 47.4902C52.4698 48.0007 52.6977 48.4427 53.0623 48.8164C53.436 49.181 53.919 49.4681 54.5115 49.6777C55.1039 49.8783 55.7739 49.9785 56.5213 49.9785C57.2869 49.9785 57.9431 49.8783 58.49 49.6777C59.046 49.4681 59.4744 49.1764 59.7752 48.8027C60.0851 48.4199 60.24 47.9779 60.24 47.4766V47.4629C60.24 46.7975 59.9757 46.278 59.447 45.9043C58.9275 45.5215 58.0525 45.2025 56.822 44.9473L54.7439 44.5371C52.8025 44.1452 51.3396 43.4844 50.3552 42.5547C49.3709 41.625 48.8787 40.4173 48.8787 38.9316V38.918C48.8787 37.7148 49.2022 36.6667 49.8494 35.7734C50.4965 34.8711 51.3852 34.1738 52.5154 33.6816C53.6456 33.1803 54.9399 32.9297 56.3982 32.9297C57.9203 32.9297 59.2328 33.1667 60.3357 33.6406C61.4477 34.1146 62.3136 34.7845 62.9334 35.6504C63.5532 36.5163 63.8949 37.5234 63.9588 38.6719L63.9724 38.9316H60.0759L60.0623 38.7676C59.9894 38.248 59.7934 37.806 59.4744 37.4414C59.1554 37.0677 58.7315 36.7806 58.2029 36.5801C57.6834 36.3796 57.0818 36.2793 56.3982 36.2793C55.6964 36.2793 55.0903 36.3841 54.5798 36.5938C54.0694 36.7943 53.6775 37.0723 53.4041 37.4277C53.1397 37.7832 53.0076 38.1979 53.0076 38.6719V38.6855C53.0076 39.3053 53.2719 39.8066 53.8005 40.1895C54.3292 40.5723 55.1586 40.8776 56.2888 41.1055L58.3806 41.5293C59.7569 41.8027 60.8871 42.181 61.7713 42.6641C62.6554 43.1471 63.3071 43.7578 63.7263 44.4961C64.1547 45.2253 64.3689 46.1048 64.3689 47.1348V47.1484C64.3689 48.4154 64.0499 49.5137 63.4119 50.4434C62.783 51.3639 61.8715 52.0794 60.6775 52.5898C59.4926 53.0911 58.0707 53.3418 56.4119 53.3418ZM71.9266 53.3008C70.8511 53.3008 69.9351 53.082 69.1786 52.6445C68.4312 52.1979 67.857 51.5645 67.4559 50.7441C67.064 49.9238 66.868 48.944 66.868 47.8047V38.3438H70.8602V46.9707C70.8602 47.9277 71.0835 48.6706 71.5302 49.1992C71.9859 49.7279 72.6604 49.9922 73.5536 49.9922C74.0002 49.9922 74.4013 49.9147 74.7567 49.7598C75.1213 49.6048 75.4312 49.3861 75.6864 49.1035C75.9416 48.8118 76.1376 48.4701 76.2743 48.0781C76.411 47.6771 76.4794 47.2396 76.4794 46.7656V38.3438H80.4716V53H76.4794V50.5801H76.3973C76.1421 51.1361 75.8049 51.6191 75.3856 52.0293C74.9755 52.4395 74.4787 52.7539 73.8954 52.9727C73.3212 53.1914 72.6649 53.3008 71.9266 53.3008ZM87.8105 53.2324C86.8353 53.2324 85.9785 53.0456 85.2402 52.6719C84.502 52.2891 83.9232 51.765 83.5039 51.0996C83.0938 50.4251 82.8887 49.6595 82.8887 48.8027V48.7754C82.8887 47.8822 83.112 47.1211 83.5586 46.4922C84.0052 45.8542 84.6523 45.3529 85.5 44.9883C86.3477 44.6237 87.3776 44.4004 88.5898 44.3184L94.3047 43.9629V46.4512L89.1914 46.7793C88.4258 46.8249 87.8424 47.0072 87.4414 47.3262C87.0404 47.6361 86.8398 48.0508 86.8398 48.5703V48.5977C86.8398 49.1354 87.0449 49.5592 87.4551 49.8691C87.8652 50.1699 88.4167 50.3203 89.1094 50.3203C89.7018 50.3203 90.2305 50.2064 90.6953 49.9785C91.1693 49.7415 91.5384 49.4225 91.8027 49.0215C92.0762 48.6113 92.2129 48.151 92.2129 47.6406V43.1973C92.2129 42.5501 92.0078 42.0397 91.5977 41.666C91.1875 41.2832 90.5905 41.0918 89.8066 41.0918C89.0592 41.0918 88.4668 41.2467 88.0293 41.5566C87.5918 41.8665 87.3229 42.2585 87.2227 42.7324L87.1953 42.8555H83.5449L83.5586 42.6914C83.6315 41.7891 83.9277 40.987 84.4473 40.2852C84.9759 39.5833 85.7051 39.0365 86.6348 38.6445C87.5736 38.2435 88.6855 38.043 89.9707 38.043C91.2376 38.043 92.3359 38.248 93.2656 38.6582C94.1953 39.0592 94.9154 39.6289 95.4258 40.3672C95.9453 41.1055 96.2051 41.9668 96.2051 42.9512V53H92.2129V50.8125H92.1309C91.8574 51.3138 91.502 51.7467 91.0645 52.1113C90.6361 52.4668 90.1484 52.7448 89.6016 52.9453C89.0547 53.1367 88.4577 53.2324 87.8105 53.2324ZM99.1691 53V38.3438H103.161V40.9004H103.243C103.462 39.998 103.859 39.2962 104.433 38.7949C105.007 38.2936 105.722 38.043 106.579 38.043C106.798 38.043 107.008 38.0566 107.208 38.084C107.409 38.1113 107.582 38.1478 107.728 38.1934V41.707C107.564 41.6432 107.354 41.5931 107.099 41.5566C106.844 41.5111 106.57 41.4883 106.278 41.4883C105.622 41.4883 105.062 41.6159 104.597 41.8711C104.132 42.1263 103.776 42.5 103.53 42.9922C103.284 43.4844 103.161 44.0859 103.161 44.7969V53H99.1691ZM113.754 53.2324C112.779 53.2324 111.922 53.0456 111.184 52.6719C110.446 52.2891 109.867 51.765 109.448 51.0996C109.037 50.4251 108.832 49.6595 108.832 48.8027V48.7754C108.832 47.8822 109.056 47.1211 109.502 46.4922C109.949 45.8542 110.596 45.3529 111.444 44.9883C112.291 44.6237 113.321 44.4004 114.533 44.3184L120.248 43.9629V46.4512L115.135 46.7793C114.369 46.8249 113.786 47.0072 113.385 47.3262C112.984 47.6361 112.783 48.0508 112.783 48.5703V48.5977C112.783 49.1354 112.989 49.5592 113.399 49.8691C113.809 50.1699 114.36 50.3203 115.053 50.3203C115.645 50.3203 116.174 50.2064 116.639 49.9785C117.113 49.7415 117.482 49.4225 117.746 49.0215C118.02 48.6113 118.156 48.151 118.156 47.6406V43.1973C118.156 42.5501 117.951 42.0397 117.541 41.666C117.131 41.2832 116.534 41.0918 115.75 41.0918C115.003 41.0918 114.41 41.2467 113.973 41.5566C113.535 41.8665 113.267 42.2585 113.166 42.7324L113.139 42.8555H109.489L109.502 42.6914C109.575 41.7891 109.871 40.987 110.391 40.2852C110.92 39.5833 111.649 39.0365 112.578 38.6445C113.517 38.2435 114.629 38.043 115.914 38.043C117.181 38.043 118.28 38.248 119.209 38.6582C120.139 39.0592 120.859 39.6289 121.369 40.3672C121.889 41.1055 122.149 41.9668 122.149 42.9512V53H118.156V50.8125H118.074C117.801 51.3138 117.446 51.7467 117.008 52.1113C116.58 52.4668 116.092 52.7448 115.545 52.9453C114.998 53.1367 114.401 53.2324 113.754 53.2324Z" fill="#F7F9FB"/>
</g>
<defs>
<linearGradient id="paint0_linear_4152_1131" x1="174" y1="-4" x2="63.5" y2="241" gradientUnits="userSpaceOnUse">
<stop stop-color="#FFAD1F"/>
<stop offset="1" stop-color="#FFBE4D"/>
</linearGradient>
<clipPath id="clip0_4152_1131">
<rect width="170.5" height="208" rx="12" fill="white"/>
</clipPath>
</defs>
</svg>
