<?xml version="1.0" encoding="UTF-8"?>
<!--Generator: Apple Native CoreSVG 232.5-->
<!DOCTYPE svg
PUBLIC "-//W3C//DTD SVG 1.1//EN"
       "http://www.w3.org/Graphics/SVG/1.1/DTD/svg11.dtd">
<svg version="1.1" xmlns="http://www.w3.org/2000/svg" xmlns:xlink="http://www.w3.org/1999/xlink" width="20.9912" height="20.625">
 <g>
  <rect height="20.625" opacity="0" width="20.9912" x="0" y="0"/>
  <path d="M20.6299 10.3125C20.6299 15.9717 15.9766 20.625 10.3125 20.625C4.6582 20.625 0 15.9717 0 10.3125C0 4.64844 4.65332 0 10.3076 0C15.9717 0 20.6299 4.64844 20.6299 10.3125ZM7.3291 6.19629C6.77734 6.19629 6.48438 6.52344 6.48438 6.99707L6.48438 13.6133C6.48438 14.0918 6.77734 14.4189 7.3291 14.4189L8.50098 14.4189C9.05762 14.4189 9.3457 14.0918 9.3457 13.6133L9.3457 6.99707C9.3457 6.52344 9.05762 6.19629 8.50098 6.19629ZM12.1387 6.19629C11.582 6.19629 11.2939 6.52344 11.2939 6.99707L11.2939 13.6133C11.2939 14.0918 11.582 14.4189 12.1387 14.4189L13.3105 14.4189C13.8574 14.4189 14.1504 14.0918 14.1504 13.6133L14.1504 6.99707C14.1504 6.52344 13.8574 6.19629 13.3105 6.19629Z" fill="#ffffff" fill-opacity="0.85"/>
 </g>
</svg>
