<svg width="684" height="432" viewBox="0 0 684 432" fill="none" xmlns="http://www.w3.org/2000/svg">
<path d="M414.47 411.519C337.013 350.039 281.189 358.728 178.028 403.85C168.54 408 157.407 403.757 153.269 394.264L18.9867 86.2092C14.8628 76.7486 19.2697 65.7188 28.7661 61.6781C146.608 11.5365 223.688 -17.0301 303.268 89.2059M414.47 411.519C414.47 411.519 322.091 240.716 330.055 239.01C338.019 237.304 367.701 245.493 374.217 210.922C380.733 176.351 303.268 89.2059 303.268 89.2059M414.47 411.519C509.063 365.247 569.394 360.898 645.981 385.59C658.79 389.719 671.073 376.638 665.405 364.432L536.922 87.7514C534.735 83.0417 530.637 79.4435 525.684 77.8829C423.416 45.6563 395.969 47.7346 303.268 89.2059" stroke="#999999" stroke-width="33.445" stroke-linecap="round"/>
<path d="M166.816 164.666C181.295 186.662 239.792 200.924 264.986 156.859" stroke="#999999" stroke-width="33.445" stroke-linecap="round"/>
<path d="M49.9471 113.218L37.1356 82.7136C36.1788 80.4355 35.686 77.9896 35.686 75.5188V73.6033C35.686 65.3491 41.1314 58.0845 49.0541 55.7689L159.034 23.6254C160.578 23.174 162.175 22.9251 163.783 22.885L210.488 21.7213C219.054 21.5079 226.655 27.1796 228.889 35.4517L229.458 37.5578C233.711 53.3063 217.057 66.4994 202.7 58.7557L191.025 52.4591C179.943 46.482 166.25 53.0255 163.94 65.4028L162.737 71.847C160.226 85.295 144.535 91.5106 133.497 83.43L127.906 79.3376C119.013 72.8275 106.44 75.4453 100.884 84.9641L83.1252 115.39C75.4011 128.623 55.8804 127.345 49.9471 113.218Z" fill="#999999" stroke="#999999" stroke-width="33.445" stroke-linecap="round"/>
<path d="M349.599 298.29C357.76 319.213 343.371 314.107 330.097 319.279C316.822 324.451 306.702 330.287 301.527 317.02C296.352 303.753 302.918 288.805 316.193 283.633C329.467 278.461 344.424 285.023 349.599 298.29Z" fill="#999999"/>
</svg>
