<?xml version="1.0" encoding="UTF-8"?>
<!--Generator: Apple Native CoreSVG 232.5-->
<!DOCTYPE svg
PUBLIC "-//W3C//DTD SVG 1.1//EN"
       "http://www.w3.org/Graphics/SVG/1.1/DTD/svg11.dtd">
<svg version="1.1" xmlns="http://www.w3.org/2000/svg" xmlns:xlink="http://www.w3.org/1999/xlink" width="20.6248" height="20.6425">
 <g>
  <rect height="20.6425" opacity="0" width="20.6248" x="0" y="0"/>
  <path d="M10.3093 20.6425C15.9683 20.6425 20.6243 15.9922 20.6243 10.3332C20.6243 4.67413 15.9626 0.0238823 10.3036 0.0238823C4.64922 0.0238823-2.22045e-16 4.67413-2.22045e-16 10.3332C-2.22045e-16 15.9922 4.65496 20.6425 10.3093 20.6425Z" fill="#ffe7e5"/>
  <path d="M7.97931 16.08C7.16718 16.08 6.70519 15.6611 6.66885 14.85L6.3299 7.48229L5.67747 7.48229C5.35184 7.48229 5.07971 7.23973 5.09113 6.91411C5.10254 6.57808 5.35184 6.33551 5.67747 6.33551L7.80383 6.33551L7.80383 5.73022C7.80383 4.83018 8.4067 4.27195 9.44166 4.27195L11.1717 4.27195C12.2123 4.27195 12.8173 4.83018 12.8173 5.73022L12.8173 6.33551L14.9354 6.33551C15.2782 6.33551 15.5332 6.57808 15.5275 6.91411C15.5217 7.23973 15.2782 7.48229 14.9354 7.48229L14.3026 7.48229L13.9627 14.85C13.9263 15.6611 13.4576 16.08 12.6465 16.08ZM8.63111 14.5369C8.87312 14.5369 9.0279 14.38 9.02116 14.1562L8.84845 8.60713C8.84172 8.36718 8.68487 8.21809 8.46103 8.21809C8.20184 8.21809 8.05541 8.37494 8.06215 8.62631L8.24102 14.1639C8.24776 14.3868 8.40829 14.5369 8.63111 14.5369ZM10.3072 14.5358C10.5529 14.5358 10.7108 14.3847 10.7108 14.1619L10.7108 8.60245C10.7108 8.36249 10.555 8.21809 10.3072 8.21809C10.0595 8.21809 9.91511 8.36249 9.91511 8.60245L9.91511 14.1619C9.91511 14.3847 10.0616 14.5358 10.3072 14.5358ZM11.9834 14.5369C12.2005 14.5369 12.3657 14.3868 12.3724 14.1639L12.5466 8.62631C12.5533 8.37494 12.4069 8.21809 12.1649 8.21809C11.9296 8.21809 11.767 8.36718 11.7603 8.60713L11.5876 14.1562C11.5809 14.38 11.7414 14.5369 11.9834 14.5369ZM9.01629 6.33551L11.6013 6.33551L11.6013 5.7448C11.6013 5.50918 11.4176 5.34103 11.1493 5.34103L9.46723 5.34103C9.20465 5.34103 9.01629 5.50918 9.01629 5.7448Z" fill="#ff453a"/>
 </g>
</svg>
