<svg width="175" height="212" viewBox="0 0 175 212" fill="none" xmlns="http://www.w3.org/2000/svg">
<g clip-path="url(#clip0_2189_753)">
<rect x="2" y="2" width="170.5" height="208" rx="12" fill="url(#paint0_linear_2189_753)"/>
<path d="M86.5362 193.53C64.0335 175.576 47.8374 178.184 17.7726 191.435C15.2 192.568 12.1741 191.416 11.0556 188.837L-28.1212 98.4923C-29.2298 95.9357 -28.0405 92.9594 -25.4785 91.8631C8.83418 77.1788 31.2233 68.7041 54.341 99.7267M86.5362 193.53C86.5362 193.53 59.7907 143.821 62.0963 143.325C64.402 142.828 72.9957 145.212 74.8822 135.15C76.7686 125.089 54.341 99.7267 54.341 99.7267M86.5362 193.53C114.2 179.927 131.743 178.774 154.24 186.206C157.699 187.349 161.03 183.818 159.503 180.51L121.921 99.1565C121.331 97.8795 120.22 96.9021 118.879 96.4768C89.1518 87.0503 81.223 87.6376 54.341 99.7267" stroke="#D18400" stroke-width="9.05489" stroke-linecap="round"/>
<path d="M-18.7322 107.356L-22.7401 97.7633C-22.9967 97.149 -23.1289 96.4898 -23.1289 95.824V94.8976C-23.1289 92.6654 -21.658 90.7002 -19.5164 90.0711L12.6235 80.6285C13.0435 80.5051 13.4779 80.437 13.9155 80.426L27.748 80.0796C30.0698 80.0214 32.1296 81.5603 32.7322 83.8033L33.1945 85.524C34.3409 89.7913 29.823 93.3576 25.9386 91.2515L21.4367 88.8107C18.4341 87.1828 14.7167 88.9565 14.0931 92.3145L13.5512 95.2322C12.8736 98.8811 8.61304 100.565 5.62382 98.3654L3.27162 96.6346C0.860523 94.8603 -2.55702 95.5715 -4.06018 98.1603L-9.74024 107.943C-11.8281 111.538 -17.1293 111.193 -18.7322 107.356Z" fill="#D18400" stroke="#D18400" stroke-width="9.05489" stroke-linecap="round"/>
<path d="M12.6724 116.354C16.8644 122.726 33.8005 126.857 41.0947 114.093" stroke="#D18400" stroke-width="9.05489" stroke-linecap="round"/>
<path d="M40.871 161.991C36.1453 149.869 44.4768 152.827 52.1633 149.831C59.8498 146.834 65.7098 143.453 68.7063 151.139C71.7029 158.826 67.9009 167.486 60.2144 170.483C52.5279 173.479 43.8675 169.677 40.871 161.991Z" fill="#D18400"/>
<path d="M83.6711 140.726C89.3655 146.306 90.8454 150.457 90.988 159.569" stroke="#D18400" stroke-width="8.38416" stroke-linecap="round"/>
<path d="M93.0095 128.619C103.057 138.43 105.619 145.402 105.204 160.023" stroke="#D18400" stroke-width="8.38416" stroke-linecap="round"/>
<path d="M98.7695 110.673C117.079 126.959 121.596 139.466 120.72 167.201" stroke="#D18400" stroke-width="8.38416" stroke-linecap="round"/>
<path d="M58.4119 55.3418C56.8533 55.3418 55.4907 55.1139 54.324 54.6582C53.1664 54.1934 52.255 53.5326 51.5896 52.6758C50.9242 51.8099 50.5505 50.7708 50.4685 49.5586L50.4548 49.3398H54.3513L54.3787 49.4902C54.4698 50.0007 54.6977 50.4427 55.0623 50.8164C55.436 51.181 55.919 51.4681 56.5115 51.6777C57.1039 51.8783 57.7739 51.9785 58.5213 51.9785C59.2869 51.9785 59.9431 51.8783 60.49 51.6777C61.046 51.4681 61.4744 51.1764 61.7752 50.8027C62.0851 50.4199 62.24 49.9779 62.24 49.4766V49.4629C62.24 48.7975 61.9757 48.278 61.447 47.9043C60.9275 47.5215 60.0525 47.2025 58.822 46.9473L56.7439 46.5371C54.8025 46.1452 53.3396 45.4844 52.3552 44.5547C51.3709 43.625 50.8787 42.4173 50.8787 40.9316V40.918C50.8787 39.7148 51.2022 38.6667 51.8494 37.7734C52.4965 36.8711 53.3852 36.1738 54.5154 35.6816C55.6456 35.1803 56.9399 34.9297 58.3982 34.9297C59.9203 34.9297 61.2328 35.1667 62.3357 35.6406C63.4477 36.1146 64.3136 36.7845 64.9334 37.6504C65.5532 38.5163 65.8949 39.5234 65.9588 40.6719L65.9724 40.9316H62.0759L62.0623 40.7676C61.9894 40.248 61.7934 39.806 61.4744 39.4414C61.1554 39.0677 60.7315 38.7806 60.2029 38.5801C59.6834 38.3796 59.0818 38.2793 58.3982 38.2793C57.6964 38.2793 57.0903 38.3841 56.5798 38.5938C56.0694 38.7943 55.6775 39.0723 55.4041 39.4277C55.1397 39.7832 55.0076 40.1979 55.0076 40.6719V40.6855C55.0076 41.3053 55.2719 41.8066 55.8005 42.1895C56.3292 42.5723 57.1586 42.8776 58.2888 43.1055L60.3806 43.5293C61.7569 43.8027 62.8871 44.181 63.7713 44.6641C64.6554 45.1471 65.3071 45.7578 65.7263 46.4961C66.1547 47.2253 66.3689 48.1048 66.3689 49.1348V49.1484C66.3689 50.4154 66.0499 51.5137 65.4119 52.4434C64.783 53.3639 63.8715 54.0794 62.6775 54.5898C61.4926 55.0911 60.0707 55.3418 58.4119 55.3418ZM73.9266 55.3008C72.8511 55.3008 71.9351 55.082 71.1786 54.6445C70.4312 54.1979 69.857 53.5645 69.4559 52.7441C69.064 51.9238 68.868 50.944 68.868 49.8047V40.3438H72.8602V48.9707C72.8602 49.9277 73.0835 50.6706 73.5302 51.1992C73.9859 51.7279 74.6604 51.9922 75.5536 51.9922C76.0002 51.9922 76.4013 51.9147 76.7567 51.7598C77.1213 51.6048 77.4312 51.3861 77.6864 51.1035C77.9416 50.8118 78.1376 50.4701 78.2743 50.0781C78.411 49.6771 78.4794 49.2396 78.4794 48.7656V40.3438H82.4716V55H78.4794V52.5801H78.3973C78.1421 53.1361 77.8049 53.6191 77.3856 54.0293C76.9755 54.4395 76.4787 54.7539 75.8954 54.9727C75.3212 55.1914 74.6649 55.3008 73.9266 55.3008ZM89.8105 55.2324C88.8353 55.2324 87.9785 55.0456 87.2402 54.6719C86.502 54.2891 85.9232 53.765 85.5039 53.0996C85.0938 52.4251 84.8887 51.6595 84.8887 50.8027V50.7754C84.8887 49.8822 85.112 49.1211 85.5586 48.4922C86.0052 47.8542 86.6523 47.3529 87.5 46.9883C88.3477 46.6237 89.3776 46.4004 90.5898 46.3184L96.3047 45.9629V48.4512L91.1914 48.7793C90.4258 48.8249 89.8424 49.0072 89.4414 49.3262C89.0404 49.6361 88.8398 50.0508 88.8398 50.5703V50.5977C88.8398 51.1354 89.0449 51.5592 89.4551 51.8691C89.8652 52.1699 90.4167 52.3203 91.1094 52.3203C91.7018 52.3203 92.2305 52.2064 92.6953 51.9785C93.1693 51.7415 93.5384 51.4225 93.8027 51.0215C94.0762 50.6113 94.2129 50.151 94.2129 49.6406V45.1973C94.2129 44.5501 94.0078 44.0397 93.5977 43.666C93.1875 43.2832 92.5905 43.0918 91.8066 43.0918C91.0592 43.0918 90.4668 43.2467 90.0293 43.5566C89.5918 43.8665 89.3229 44.2585 89.2227 44.7324L89.1953 44.8555H85.5449L85.5586 44.6914C85.6315 43.7891 85.9277 42.987 86.4473 42.2852C86.9759 41.5833 87.7051 41.0365 88.6348 40.6445C89.5736 40.2435 90.6855 40.043 91.9707 40.043C93.2376 40.043 94.3359 40.248 95.2656 40.6582C96.1953 41.0592 96.9154 41.6289 97.4258 42.3672C97.9453 43.1055 98.2051 43.9668 98.2051 44.9512V55H94.2129V52.8125H94.1309C93.8574 53.3138 93.502 53.7467 93.0645 54.1113C92.6361 54.4668 92.1484 54.7448 91.6016 54.9453C91.0547 55.1367 90.4577 55.2324 89.8105 55.2324ZM101.169 55V40.3438H105.161V42.9004H105.243C105.462 41.998 105.859 41.2962 106.433 40.7949C107.007 40.2936 107.722 40.043 108.579 40.043C108.798 40.043 109.008 40.0566 109.208 40.084C109.409 40.1113 109.582 40.1478 109.728 40.1934V43.707C109.564 43.6432 109.354 43.5931 109.099 43.5566C108.844 43.5111 108.57 43.4883 108.278 43.4883C107.622 43.4883 107.062 43.6159 106.597 43.8711C106.132 44.1263 105.776 44.5 105.53 44.9922C105.284 45.4844 105.161 46.0859 105.161 46.7969V55H101.169ZM115.754 55.2324C114.779 55.2324 113.922 55.0456 113.184 54.6719C112.446 54.2891 111.867 53.765 111.448 53.0996C111.037 52.4251 110.832 51.6595 110.832 50.8027V50.7754C110.832 49.8822 111.056 49.1211 111.502 48.4922C111.949 47.8542 112.596 47.3529 113.444 46.9883C114.291 46.6237 115.321 46.4004 116.533 46.3184L122.248 45.9629V48.4512L117.135 48.7793C116.369 48.8249 115.786 49.0072 115.385 49.3262C114.984 49.6361 114.783 50.0508 114.783 50.5703V50.5977C114.783 51.1354 114.989 51.5592 115.399 51.8691C115.809 52.1699 116.36 52.3203 117.053 52.3203C117.645 52.3203 118.174 52.2064 118.639 51.9785C119.113 51.7415 119.482 51.4225 119.746 51.0215C120.02 50.6113 120.156 50.151 120.156 49.6406V45.1973C120.156 44.5501 119.951 44.0397 119.541 43.666C119.131 43.2832 118.534 43.0918 117.75 43.0918C117.003 43.0918 116.41 43.2467 115.973 43.5566C115.535 43.8665 115.267 44.2585 115.166 44.7324L115.139 44.8555H111.489L111.502 44.6914C111.575 43.7891 111.871 42.987 112.391 42.2852C112.92 41.5833 113.649 41.0365 114.578 40.6445C115.517 40.2435 116.629 40.043 117.914 40.043C119.181 40.043 120.28 40.248 121.209 40.6582C122.139 41.0592 122.859 41.6289 123.369 42.3672C123.889 43.1055 124.149 43.9668 124.149 44.9512V55H120.156V52.8125H120.074C119.801 53.3138 119.446 53.7467 119.008 54.1113C118.58 54.4668 118.092 54.7448 117.545 54.9453C116.998 55.1367 116.401 55.2324 115.754 55.2324Z" fill="#F7F9FB"/>
</g>
<rect x="1" y="1" width="172.5" height="210" rx="13" stroke="#D18400" stroke-opacity="0.25" stroke-width="2"/>
<defs>
<linearGradient id="paint0_linear_2189_753" x1="176" y1="-2" x2="65.5" y2="243" gradientUnits="userSpaceOnUse">
<stop stop-color="#FFAD1F"/>
<stop offset="1" stop-color="#FFBE4D"/>
</linearGradient>
<clipPath id="clip0_2189_753">
<rect x="2" y="2" width="170.5" height="208" rx="12" fill="white"/>
</clipPath>
</defs>
</svg>
