<svg width="148" height="42" viewBox="0 0 148 42" fill="none" xmlns="http://www.w3.org/2000/svg">
<path d="M39.9625 40.0022C32.4475 34.0061 27.0386 34.8771 16.9981 39.3022C16.1389 39.6809 15.1284 39.2961 14.7548 38.4347L1.67124 8.26294C1.30099 7.40912 1.6982 6.41517 2.55378 6.04902C14.013 1.14502 21.4901 -1.68523 29.2105 8.67517M39.9625 40.0022C39.9625 40.0022 31.0305 23.4011 31.8005 23.2353C32.5705 23.0695 35.4405 23.8654 36.0705 20.5053C36.7005 17.1452 29.2105 8.67517 29.2105 8.67517M39.9625 40.0022C49.2014 35.4592 55.0601 35.0739 62.5731 37.556C63.7284 37.9376 64.8409 36.7584 64.3306 35.6539L51.7797 8.48477C51.5826 8.05828 51.2116 7.73185 50.7637 7.58985C40.8361 4.44174 38.1882 4.63787 29.2105 8.67517M26.0185 27.3647C28.4545 31.6276 32.0665 30.3886 33.0745 29.0774M45.9685 28.9234C49.9165 26.8234 51.2605 26.3201 55.2085 28.1681M39.3745 14.8709C43.3225 12.7709 44.6665 12.2676 48.6145 14.1156M15.4345 14.1156C16.8345 11.9876 22.4905 10.6079 24.9265 14.8709M42.8185 21.8429C46.7665 19.7429 48.1105 19.2396 52.0585 21.0876" stroke="#6DA451" stroke-width="3.024" stroke-linecap="round"/>
<path d="M4.80427 11.2235L3.46579 8.01986C3.38008 7.8147 3.33594 7.59456 3.33594 7.37221V7.06281C3.33594 6.31736 3.82716 5.66106 4.54238 5.45094L15.2759 2.29746C15.4162 2.25625 15.5612 2.23352 15.7074 2.22986L20.327 2.11416C21.1023 2.09473 21.7902 2.60867 21.9915 3.35774L22.1459 3.93239C22.5287 5.35751 21.0199 6.54851 19.7227 5.84518L18.2192 5.03004C17.2164 4.48638 15.975 5.07871 15.7667 6.20018L15.5857 7.17457C15.3594 8.39317 13.9366 8.95554 12.9383 8.22095L12.1527 7.6429C11.3475 7.05038 10.2062 7.2879 9.70419 8.15245L7.80726 11.4194C7.10998 12.6203 5.3396 12.5048 4.80427 11.2235Z" fill="#6DA451" stroke="#6DA451" stroke-width="3.024" stroke-linecap="round"/>
<path d="M86.5445 18.1246C86.0312 18.1246 85.5769 17.8265 85.2345 17.444C84.9406 17.1158 84.5863 16.8479 84.1716 16.6406C83.5182 16.2859 82.7436 16.1086 81.8476 16.1086C80.2982 16.1086 79.0569 16.6219 78.1236 17.6486C77.1902 18.6566 76.7236 20.0099 76.7236 21.7086C76.7236 23.5192 77.2089 24.9379 78.1796 25.9646C79.1689 26.9726 80.5222 27.4766 82.2396 27.4766C83.4156 27.4766 84.4049 27.1779 85.2076 26.5806C85.9373 26.0499 86.4902 25.3128 86.8663 24.3695C86.9371 24.192 86.8022 24.0046 86.6111 24.0046H82.3236C81.5504 24.0046 80.9236 23.3778 80.9236 22.6046V21.8766C80.9236 21.1034 81.5504 20.4766 82.3236 20.4766H89.9396C90.7128 20.4766 91.3396 21.1034 91.3396 21.8766V24.7251C91.3396 24.8601 91.3208 24.9945 91.2794 25.1229C90.9181 26.2439 90.3315 27.2898 89.5196 28.2606C88.6796 29.2872 87.6062 30.1179 86.2996 30.7526C84.9929 31.3872 83.5182 31.7046 81.8756 31.7046C79.9342 31.7046 78.1982 31.2846 76.6676 30.4446C75.1556 29.5859 73.9702 28.4006 73.1116 26.8886C72.2716 25.3766 71.8516 23.6499 71.8516 21.7086C71.8516 19.7672 72.2716 18.0406 73.1116 16.5286C73.9702 14.9979 75.1556 13.8126 76.6676 12.9726C78.1796 12.1139 79.9062 11.6846 81.8476 11.6846C84.1996 11.6846 86.1782 12.2539 87.7836 13.3926C88.9201 14.1894 89.7869 15.2012 90.3841 16.4277C90.7849 17.2512 90.1101 18.1246 89.1943 18.1246H86.5445Z" fill="#6DA451"/>
<path d="M105.15 29.0434C104.957 28.475 104.424 28.0926 103.824 28.0926H98.4956C97.8955 28.0926 97.3621 28.475 97.1696 29.0434L96.6378 30.6137C96.4452 31.1821 95.9119 31.5646 95.3118 31.5646H93.2991C92.3285 31.5646 91.6524 30.6009 91.9826 29.6882L98.0815 12.8322C98.2821 12.2779 98.8084 11.9086 99.398 11.9086H102.977C103.567 11.9086 104.093 12.2779 104.294 12.8322L110.393 29.6882C110.723 30.6009 110.047 31.5646 109.076 31.5646H107.008C106.408 31.5646 105.874 31.1821 105.682 30.6137L105.15 29.0434ZM103.205 24.3966C103.397 24.3966 103.532 24.2083 103.471 24.0268L101.426 17.9886C101.34 17.7345 100.981 17.7351 100.896 17.9895L98.8751 24.0277C98.8144 24.2091 98.9494 24.3966 99.1406 24.3966H103.205Z" fill="#6DA451"/>
<path d="M123.926 31.5646C123.489 31.5646 123.077 31.3604 122.812 31.0126L117.127 23.545C116.965 23.3317 116.624 23.4466 116.624 23.7146V30.1646C116.624 30.9378 115.997 31.5646 115.224 31.5646H113.236C112.463 31.5646 111.836 30.9378 111.836 30.1646V13.3086C111.836 12.5354 112.463 11.9086 113.236 11.9086H115.224C115.997 11.9086 116.624 12.5354 116.624 13.3086V19.7012C116.624 19.9694 116.965 20.0841 117.127 19.8706L122.756 12.4616C123.021 12.1132 123.433 11.9086 123.871 11.9086H125.912C127.083 11.9086 127.736 13.259 127.011 14.1769L121.874 20.6739C121.472 21.1821 121.471 21.8996 121.872 22.4085L127.299 29.2983C128.022 30.2166 127.368 31.5646 126.199 31.5646H123.926Z" fill="#6DA451"/>
<path d="M137.459 32.2646C135.534 32.2646 133.764 31.8168 132.151 30.9211C130.556 30.0254 129.282 28.7793 128.33 27.1826C127.396 25.5665 126.93 23.7556 126.93 21.75C126.93 19.7445 127.396 17.9434 128.33 16.3467C129.282 14.75 130.556 13.5039 132.151 12.6082C133.764 11.7125 135.534 11.2646 137.459 11.2646C139.384 11.2646 141.144 11.7125 142.738 12.6082C144.352 13.5039 145.616 14.75 146.53 16.3467C147.463 17.9434 147.93 19.7445 147.93 21.75C147.93 23.7556 147.463 25.5665 146.53 27.1826C145.596 28.7793 144.332 30.0254 142.738 30.9211C141.144 31.8168 139.384 32.2646 137.459 32.2646ZM137.459 27.7083C139.092 27.7083 140.395 27.1631 141.367 26.0727C142.359 24.9823 142.855 23.5414 142.855 21.75C142.855 19.9392 142.359 18.4983 141.367 17.4274C140.395 16.337 139.092 15.7918 137.459 15.7918C135.806 15.7918 134.484 16.3272 133.492 17.3982C132.52 18.4691 132.034 19.9197 132.034 21.75C132.034 23.5609 132.52 25.0115 133.492 26.1019C134.484 27.1729 135.806 27.7083 137.459 27.7083Z" fill="#6DA451"/>
</svg>
