<svg width="175" height="212" viewBox="0 0 175 212" fill="none" xmlns="http://www.w3.org/2000/svg">
<g clip-path="url(#clip0_2414_36998)">
<rect x="2.5" y="2" width="170.5" height="208" rx="12" fill="url(#paint0_linear_2414_36998)"/>
<path d="M86.4998 192.736C64.0957 174.86 47.9705 177.457 18.0373 190.649C15.4759 191.778 12.4632 190.631 11.3497 188.063L-27.6556 98.1137C-28.7594 95.5683 -27.5753 92.6051 -25.0245 91.5135C9.13796 76.8935 31.4291 68.4559 54.4455 99.3427M86.4998 192.736C86.4998 192.736 59.8714 143.244 62.1669 142.75C64.4625 142.255 73.0186 144.628 74.8968 134.611C76.775 124.594 54.4455 99.3427 54.4455 99.3427M86.4998 192.736C114.043 179.192 131.509 178.044 153.907 185.443C157.351 186.581 160.668 183.065 159.147 179.773L121.729 98.775C121.142 97.5036 120.036 96.5304 118.701 96.1071C89.1039 86.7218 81.2099 87.3065 54.4455 99.3427" stroke="#D18400" stroke-width="9.01525" stroke-linecap="round"/>
<path d="M-18.3079 106.939L-22.2982 97.3879C-22.5537 96.7762 -22.6853 96.1199 -22.6853 95.4571V94.5347C-22.6853 92.3123 -21.2209 90.3557 -19.0886 89.7293L12.9106 80.328C13.3288 80.2052 13.7612 80.1374 14.197 80.1265L27.9689 79.7816C30.2805 79.7237 32.3313 81.2558 32.9313 83.489L33.3915 85.2022C34.5329 89.4508 30.0348 93.0014 26.1674 90.9046L21.6852 88.4745C18.6957 86.8537 14.9946 88.6196 14.3737 91.963L13.8342 94.8678C13.1596 98.5008 8.91769 100.177 5.94155 97.9874L3.59965 96.2641C1.19911 94.4976 -2.20348 95.2057 -3.70005 97.7832L-9.35525 107.523C-11.434 111.103 -16.7119 110.758 -18.3079 106.939Z" fill="#D18400" stroke="#D18400" stroke-width="9.01525" stroke-linecap="round"/>
<path d="M12.9592 115.897C17.133 122.241 33.9948 126.355 41.2571 113.646" stroke="#D18400" stroke-width="9.01525" stroke-linecap="round"/>
<path d="M43.677 154.645C50.9393 167.354 61.7075 163.66 64.7126 159.751" stroke="#D18400" stroke-width="9.01525" stroke-linecap="round"/>
<path d="M104.779 160.549C116.549 154.288 120.556 152.788 132.325 158.297M85.1206 118.655C96.8905 112.394 100.897 110.894 112.667 116.403M95.388 139.44C107.158 133.179 111.165 131.679 122.935 137.188" stroke="#D18400" stroke-width="9.01525" stroke-linecap="round"/>
<path d="M64.5843 55V38.6758H58.8831V35.2715H74.428V38.6758H68.7132V55H64.5843ZM80.2221 55.3008C78.7273 55.3008 77.4422 54.9954 76.3666 54.3848C75.2911 53.765 74.4617 52.8854 73.8784 51.7461C73.3041 50.6068 73.017 49.2578 73.017 47.6992V47.6855C73.017 46.127 73.3041 44.778 73.8784 43.6387C74.4617 42.4902 75.2774 41.6061 76.3256 40.9863C77.3829 40.3574 78.6271 40.043 80.058 40.043C81.489 40.043 82.7241 40.3483 83.7631 40.959C84.8113 41.5605 85.6179 42.4128 86.183 43.5156C86.7573 44.6185 87.0444 45.9082 87.0444 47.3848V48.6152H74.9721V46.0996H85.1577L83.2573 48.4512V46.9199C83.2573 46.0632 83.1251 45.3477 82.8608 44.7734C82.5965 44.1901 82.2273 43.7526 81.7534 43.4609C81.2885 43.1693 80.7462 43.0234 80.1264 43.0234C79.5066 43.0234 78.9552 43.1738 78.4721 43.4746C77.9981 43.7754 77.6245 44.2174 77.351 44.8008C77.0867 45.375 76.9545 46.0814 76.9545 46.9199V48.4648C76.9545 49.276 77.0867 49.9688 77.351 50.543C77.6245 51.1172 78.0118 51.5592 78.5131 51.8691C79.0144 52.1699 79.6114 52.3203 80.3041 52.3203C80.851 52.3203 81.325 52.2337 81.726 52.0605C82.1271 51.8874 82.4552 51.6686 82.7104 51.4043C82.9656 51.14 83.1388 50.8711 83.2299 50.5977L83.2573 50.5156H86.9213L86.8803 50.666C86.7709 51.2038 86.5567 51.7461 86.2377 52.293C85.9187 52.8398 85.4858 53.3411 84.9389 53.7969C84.4011 54.2526 83.7403 54.6172 82.9565 54.8906C82.1817 55.1641 81.2703 55.3008 80.2221 55.3008ZM89.6255 55V35.2715H93.6177V55H89.6255ZM98.8404 55L94.315 48.5195L96.8443 45.4844L103.448 55H98.8404ZM93.1255 50.6797V46.209H93.6998L98.649 40.3438H103.174L96.4068 48.041H95.5181L93.1255 50.6797ZM110.691 55.3008C109.342 55.3008 108.194 55.1048 107.246 54.7129C106.298 54.321 105.555 53.7786 105.017 53.0859C104.489 52.3841 104.17 51.5729 104.06 50.6523L104.047 50.5293H107.943L107.97 50.6523C108.098 51.2266 108.385 51.6732 108.832 51.9922C109.278 52.3112 109.898 52.4707 110.691 52.4707C111.202 52.4707 111.634 52.4115 111.99 52.293C112.345 52.1654 112.619 51.9876 112.81 51.7598C113.011 51.5319 113.111 51.2585 113.111 50.9395V50.9258C113.111 50.5339 112.97 50.2194 112.687 49.9824C112.405 49.7454 111.903 49.5449 111.183 49.3809L108.695 48.8613C107.747 48.6608 106.954 48.3737 106.316 48C105.687 47.6172 105.213 47.1478 104.894 46.5918C104.575 46.0267 104.416 45.3796 104.416 44.6504V44.6367C104.416 43.6979 104.666 42.8867 105.168 42.2031C105.669 41.5195 106.38 40.9909 107.3 40.6172C108.23 40.2344 109.315 40.043 110.554 40.043C111.849 40.043 112.947 40.2526 113.849 40.6719C114.761 41.082 115.458 41.638 115.941 42.3398C116.433 43.0417 116.693 43.821 116.72 44.6777V44.8145H113.043L113.029 44.7051C112.965 44.1764 112.719 43.7389 112.291 43.3926C111.871 43.0371 111.293 42.8594 110.554 42.8594C110.099 42.8594 109.702 42.9232 109.365 43.0508C109.028 43.1784 108.768 43.3607 108.586 43.5977C108.403 43.8255 108.312 44.099 108.312 44.418V44.4316C108.312 44.6777 108.371 44.901 108.49 45.1016C108.618 45.293 108.827 45.4616 109.119 45.6074C109.41 45.7533 109.802 45.8809 110.295 45.9902L112.783 46.5234C114.323 46.8424 115.426 47.321 116.091 47.959C116.766 48.597 117.103 49.4538 117.103 50.5293V50.543C117.103 51.5 116.83 52.334 116.283 53.0449C115.736 53.7559 114.98 54.3118 114.013 54.7129C113.056 55.1048 111.949 55.3008 110.691 55.3008Z" fill="#F7F9FB"/>
</g>
<rect x="1.5" y="1" width="172.5" height="210" rx="13" stroke="#D18400" stroke-width="2"/>
<defs>
<linearGradient id="paint0_linear_2414_36998" x1="176.5" y1="-2" x2="66" y2="243" gradientUnits="userSpaceOnUse">
<stop stop-color="#FFAD1F"/>
<stop offset="1" stop-color="#FFBE4D"/>
</linearGradient>
<clipPath id="clip0_2414_36998">
<rect x="2.5" y="2" width="170.5" height="208" rx="12" fill="white"/>
</clipPath>
</defs>
</svg>
