<svg width="162" height="81" viewBox="0 0 162 81" fill="none" xmlns="http://www.w3.org/2000/svg">
<path d="M154.303 92.7349L191.685 6.52986C192.743 4.09037 191.608 1.25051 189.163 0.204359C156.423 -13.8071 135.059 -21.8935 113.001 7.70765C87.3506 -3.8275 79.7852 -4.38785 51.4204 4.60673C50.1409 5.01246 49.0807 5.94511 48.5178 7.16365L12.6579 84.7897C11.2 87.9455 14.3786 91.3147 17.6794 90.2243C39.1452 83.1327 55.8842 84.2335 82.281 97.2134C103.753 80.0818 119.206 82.5703 147.894 95.2136C150.348 96.2954 153.236 95.196 154.303 92.7349Z" fill="white"/>
<path d="M82.281 97.2134C103.753 80.0818 119.207 82.5703 147.894 95.2136C150.348 96.2954 153.236 95.196 154.303 92.7349L191.685 6.52986C192.743 4.09037 191.608 1.25051 189.163 0.204359C156.423 -13.8071 135.059 -21.8935 113.001 7.70765M82.281 97.2134C82.281 97.2134 107.801 49.7819 105.601 49.308C103.401 48.8342 95.201 51.1084 93.401 41.508C91.601 31.9077 113.001 7.70765 113.001 7.70765M82.281 97.2134C55.8842 84.2335 39.1452 83.1327 17.6794 90.2243C14.3787 91.3147 11.2 87.9455 12.6579 84.7898L48.5178 7.16365C49.0807 5.94511 50.1409 5.01246 51.4204 4.60673C79.7852 -4.38785 87.3506 -3.8275 113.001 7.70765" stroke="#F5F9F3" stroke-width="8.64" stroke-linecap="round"/>
<path d="M182.726 14.9874L186.55 5.83424C186.795 5.24805 186.921 4.61908 186.921 3.98379V3.0998C186.921 0.969951 185.517 -0.90519 183.474 -1.50556L152.807 -10.5155C152.406 -10.6332 151.991 -10.6982 151.574 -10.7086L138.375 -11.0392C136.16 -11.0947 134.194 -9.62632 133.619 -7.48611L133.178 -5.84425C132.084 -1.7725 136.395 1.63036 140.102 -0.37915L144.397 -2.70813C147.262 -4.26144 150.809 -2.56907 151.404 0.63515L151.921 3.4191C152.568 6.90082 156.633 8.5076 159.486 6.40876L161.73 4.75721C164.031 3.0643 167.292 3.74291 168.726 6.21306L174.146 15.5472C176.138 18.9782 181.196 18.6482 182.726 14.9874Z" fill="#F5F9F3" stroke="#F5F9F3" stroke-width="8.64" stroke-linecap="round"/>
<path d="M127.053 67.1192C131.563 55.5528 123.613 58.3755 116.279 55.5163C108.944 52.657 103.353 49.4306 100.494 56.7649C97.6343 64.0993 101.262 72.3628 108.596 75.222C115.931 78.0813 124.194 74.4535 127.053 67.1192Z" fill="#F5F9F3"/>
<path d="M152.36 23.1997C148.36 17.1197 132.2 13.1777 125.24 25.3576" stroke="#F5F9F3" stroke-width="8.64" stroke-linecap="round"/>
<path d="M154.302 92.7359L191.684 6.53083C192.742 4.09134 191.607 1.25148 189.162 0.205336C156.422 -13.8061 135.058 -21.8925 113 7.70863C87.3497 -3.82652 79.7842 -4.38687 51.4194 4.60771C50.1399 5.01344 49.0797 5.94609 48.5168 7.16463L12.6569 84.7907C11.1991 87.9465 14.3777 91.3157 17.6785 90.2253C39.1442 83.1337 55.8832 84.2344 82.28 97.2144C103.752 80.0828 119.206 82.5713 147.893 95.2146C150.348 96.2964 153.235 95.197 154.302 92.7359Z" fill="white"/>
<path d="M82.28 97.2144C103.752 80.0828 119.206 82.5713 147.893 95.2146C150.348 96.2964 153.235 95.197 154.302 92.7359L191.684 6.53083C192.742 4.09134 191.607 1.25148 189.162 0.205336C156.422 -13.8061 135.058 -21.8925 113 7.70863M82.28 97.2144C82.28 97.2144 107.8 49.7828 105.6 49.309C103.4 48.8352 95.2 51.1094 93.4 41.509C91.6 31.9086 113 7.70863 113 7.70863M82.28 97.2144C55.8832 84.2344 39.1442 83.1337 17.6785 90.2253C14.3777 91.3157 11.1991 87.9465 12.6569 84.7907L48.5168 7.16462C49.0797 5.94609 50.1399 5.01344 51.4194 4.60771C79.7842 -4.38687 87.3497 -3.82652 113 7.70863M150.322 25.6017C146.322 31.6817 130.162 35.6237 123.202 23.4438" stroke="#F5F9F3" stroke-width="8.64" stroke-linecap="round"/>
<path d="M182.725 14.9883L186.549 5.83521C186.794 5.24903 186.92 4.62006 186.92 3.98477V3.10077C186.92 0.970927 185.516 -0.904214 183.473 -1.50458L152.806 -10.5145C152.405 -10.6323 151.99 -10.6972 151.573 -10.7077L138.374 -11.0382C136.159 -11.0937 134.193 -9.62535 133.618 -7.48513L133.177 -5.84328C132.083 -1.77153 136.394 1.63134 140.101 -0.378174L144.396 -2.70715C147.261 -4.26047 150.808 -2.56809 151.403 0.636127L151.92 3.42008C152.567 6.9018 156.632 8.50857 159.485 6.40974L161.729 4.75818C164.03 3.06527 167.291 3.74389 168.725 6.21404L174.145 15.5481C176.137 18.9792 181.195 18.6492 182.725 14.9883Z" fill="#F5F9F3" stroke="#F5F9F3" stroke-width="8.64" stroke-linecap="round"/>
<path d="M127.053 67.1202C131.562 55.5537 123.612 58.3765 116.278 55.5173C108.943 52.658 103.352 49.4316 100.493 56.7659C97.6333 64.1003 101.261 72.3638 108.595 75.223C115.93 78.0823 124.193 74.4545 127.053 67.1202Z" fill="#F5F9F3"/>
<path d="M154.304 92.734L191.686 6.52888C192.744 4.08939 191.609 1.24953 189.164 0.203382C156.424 -13.808 135.06 -21.8945 113.002 7.70668C87.3516 -3.82847 79.7862 -4.38882 51.4214 4.60576C50.1419 5.01149 49.0817 5.94414 48.5188 7.16267L12.6589 84.7888C11.201 87.9446 14.3796 91.3138 17.6804 90.2233C39.1461 83.1318 55.8852 84.2325 82.2819 97.2124C103.754 80.0809 119.207 82.5694 147.895 95.2126C150.349 96.2945 153.237 95.1951 154.304 92.734Z" fill="white"/>
<path d="M82.2819 97.2124C103.753 80.0809 119.207 82.5694 147.895 95.2126C150.349 96.2945 153.237 95.1951 154.304 92.734L191.686 6.52888C192.744 4.08939 191.609 1.24953 189.164 0.203383C156.424 -13.808 135.06 -21.8945 113.002 7.70668M82.2819 97.2124C82.2819 97.2124 107.802 49.7809 105.602 49.3071C103.402 48.8333 95.202 51.1075 93.402 41.5071C91.602 31.9067 113.002 7.70668 113.002 7.70668M82.2819 97.2124C55.8852 84.2325 39.1462 83.1318 17.6804 90.2233C14.3796 91.3138 11.201 87.9446 12.6589 84.7888L48.5187 7.16267C49.0817 5.94414 50.1419 5.01149 51.4214 4.60576C79.7862 -4.38882 87.3516 -3.82847 113.002 7.70668" stroke="#F5F9F3" stroke-width="8.64" stroke-linecap="round"/>
<path d="M182.727 14.9864L186.551 5.83326C186.796 5.24708 186.922 4.61811 186.922 3.98282V3.09882C186.922 0.968974 185.518 -0.906167 183.475 -1.50653L152.808 -10.5165C152.407 -10.6342 151.992 -10.6991 151.575 -10.7096L138.376 -11.0402C136.161 -11.0957 134.195 -9.6273 133.62 -7.48709L133.179 -5.84523C132.085 -1.77348 136.396 1.62938 140.103 -0.380127L144.398 -2.7091C147.263 -4.26242 150.81 -2.57004 151.405 0.634173L151.922 3.41813C152.569 6.89985 156.634 8.50662 159.487 6.40779L161.731 4.75623C164.032 3.06332 167.293 3.74193 168.727 6.21208L174.147 15.5462C176.139 18.9773 181.197 18.6472 182.727 14.9864Z" fill="#F5F9F3" stroke="#F5F9F3" stroke-width="8.64" stroke-linecap="round"/>
<path d="M152.361 23.1997C148.361 17.1197 132.201 13.1777 125.241 25.3576" stroke="#F5F9F3" stroke-width="8.64" stroke-linecap="round"/>
<path d="M123.322 60.707C116.362 72.887 106.042 69.347 103.162 65.6005" stroke="#F5F9F3" stroke-width="8.64" stroke-linecap="round"/>
<path d="M64.7625 66.3652C53.4825 60.3652 49.6425 58.9272 38.3625 64.2072M83.6025 26.2152C72.3225 20.2152 68.4825 18.7772 57.2025 24.0572M73.7625 46.1351C62.4825 40.1351 58.6425 38.6972 47.3625 43.9772" stroke="#F5F9F3" stroke-width="8.64" stroke-linecap="round"/>
</svg>
