<svg width="53" height="51" viewBox="0 0 53 51" fill="none" xmlns="http://www.w3.org/2000/svg">
<path d="M31.1089 46.7998C25.3953 42.2622 21.2832 42.9221 13.6485 46.2716C12.9965 46.5576 12.2306 46.266 11.9462 45.6132L2.00423 22.7926C1.721 22.1425 2.02383 21.3847 2.67625 21.1068C11.3846 17.3974 17.0676 15.2581 22.9354 23.096M31.1089 46.7998C31.1089 46.7998 24.319 34.2385 24.9043 34.113C25.4896 33.9875 27.6714 34.5898 28.1503 32.0473C28.6292 29.5049 22.9354 23.096 22.9354 23.096M31.1089 46.7998C38.1314 43.3627 42.5848 43.0709 48.2952 44.9482C49.1739 45.2371 50.0181 44.3392 49.6287 43.5002L40.0929 22.9535C39.9426 22.6298 39.6603 22.3822 39.3199 22.2748C31.773 19.8927 29.7601 20.0411 22.9354 23.096" stroke="#6DA451" stroke-width="2.2988" stroke-linecap="round"/>
<path d="M13.0117 28.5469C14.076 26.9292 18.3756 25.8804 20.2274 29.1211" stroke="#6DA451" stroke-width="2.2988" stroke-linecap="round"/>
<path d="M4.38443 25.0257L3.36711 22.602C3.30141 22.4455 3.26758 22.2775 3.26758 22.1078V21.8816C3.26758 21.3143 3.64176 20.8151 4.18623 20.6558L12.3448 18.27C12.451 18.2389 12.5608 18.2218 12.6714 18.2191L16.1852 18.1315C16.774 18.1168 17.2965 18.5067 17.45 19.0754L17.5641 19.4979C17.8562 20.5805 16.7113 21.4871 15.7246 20.9546L14.5787 20.3363C13.8169 19.9252 12.8755 20.375 12.7167 21.2259L12.5801 21.9583C12.4076 22.8828 11.3288 23.3101 10.57 22.7544L9.96695 22.3127C9.35558 21.8649 8.49103 22.0449 8.10918 22.6995L6.66514 25.1749C6.13432 26.0848 4.79215 25.997 4.38443 25.0257Z" fill="#6DA451" stroke="#6DA451" stroke-width="2.2988" stroke-linecap="round"/>
<path d="M20.3848 37.1064C22.2366 40.3471 24.9824 39.4052 25.7486 38.4084" stroke="#6DA451" stroke-width="2.2988" stroke-linecap="round"/>
<path d="M34.8151 8.63923C34.9059 7.93319 35.5565 7.43771 36.2613 7.53779L45.1247 8.79633C45.8584 8.9005 46.3496 9.60512 46.1937 10.3295L42.4046 27.9307C42.2755 28.5303 41.7384 28.9535 41.1252 28.9386L33.6475 28.7576C32.8901 28.7392 32.315 28.0693 32.4117 27.3179L34.8151 8.63923Z" fill="white" stroke="white" stroke-width="1.70281"/>
<path d="M33.0617 29.6963C33.1389 29.0545 33.6834 28.5716 34.3297 28.5716L40.2468 28.5719C41.044 28.572 41.6463 29.2943 41.503 30.0785L40.4537 35.8226C40.3404 36.443 39.7911 36.8878 39.1607 36.8697L33.6213 36.7105C32.8705 36.6889 32.3004 36.0271 32.3901 35.2814L33.0617 29.6963Z" fill="white" stroke="white" stroke-width="1.70281"/>
<path d="M36.3252 11.127C36.4139 10.4067 37.0842 9.90498 37.8003 10.0229L42.9357 10.8688C43.6554 10.9873 44.1298 11.6836 43.9768 12.3968L41.1823 25.421C41.0531 26.0232 40.5125 26.4474 39.8969 26.4297L35.8622 26.3137C35.1099 26.2921 34.5394 25.628 34.6314 24.881L36.3252 11.127Z" fill="#6DA451" stroke="#6DA451" stroke-width="1.70281"/>
<path d="M34.2279 30.9906C34.3051 30.3489 34.8496 29.866 35.4959 29.866L38.5585 29.8662C39.3557 29.8662 39.958 30.5886 39.8147 31.3728L39.2715 34.3464C39.1582 34.9668 38.6089 35.4115 37.9785 35.3934L35.1115 35.311C34.3607 35.2894 33.7905 34.6277 33.8802 33.8819L34.2279 30.9906Z" fill="#6DA451" stroke="#6DA451" stroke-width="1.70281"/>
</svg>
