<svg width="54" height="51" viewBox="0 0 54 51" fill="none" xmlns="http://www.w3.org/2000/svg">
<path d="M31.607 46.7998C25.8934 42.2622 21.7813 42.9221 14.1466 46.2716C13.4946 46.5576 12.7286 46.266 12.4442 45.6132L2.50228 22.7926C2.21904 22.1425 2.52187 21.3847 3.1743 21.1068C11.8826 17.3974 17.5656 15.2581 23.4335 23.096M31.607 46.7998C31.607 46.7998 24.817 34.2385 25.4024 34.113C25.9877 33.9875 28.1694 34.5898 28.6483 32.0473C29.1273 29.5049 23.4335 23.096 23.4335 23.096M31.607 46.7998C38.6294 43.3627 43.0829 43.0709 48.7932 44.9482C49.6719 45.2371 50.5162 44.3392 50.1268 43.5002L40.5909 22.9535C40.4407 22.6298 40.1583 22.3822 39.8179 22.2748C32.271 19.8927 30.2581 20.0411 23.4335 23.096" stroke="#6DA451" stroke-width="2.2988" stroke-linecap="round"/>
<path d="M13.5117 28.5469C14.576 26.9292 18.8756 25.8804 20.7274 29.1211" stroke="#6AAF46" stroke-width="2.2988" stroke-linecap="round"/>
<path d="M4.88638 25.0257L3.86906 22.602C3.80337 22.4455 3.76953 22.2775 3.76953 22.1078V21.8816C3.76953 21.3143 4.14372 20.8151 4.68818 20.6558L12.8468 18.27C12.953 18.2389 13.0628 18.2218 13.1734 18.2191L16.6871 18.1315C17.276 18.1168 17.7985 18.5067 17.952 19.0754L18.066 19.4979C18.3582 20.5805 17.2133 21.4871 16.2265 20.9546L15.0806 20.3363C14.3189 19.9252 13.3775 20.375 13.2187 21.2259L13.082 21.9583C12.9095 22.8828 11.8307 23.3101 11.072 22.7544L10.4689 22.3127C9.85754 21.8649 8.99298 22.0449 8.61114 22.6995L7.16709 25.1749C6.63627 26.0848 5.2941 25.997 4.88638 25.0257Z" fill="#6DA451" stroke="#6DA451" stroke-width="2.2988" stroke-linecap="round"/>
<path d="M20.8828 37.1064C22.7346 40.3471 25.4804 39.4052 26.2467 38.4084" stroke="#6AAF46" stroke-width="2.2988" stroke-linecap="round"/>
<path d="M35.3151 8.63923C35.4059 7.93319 36.0565 7.43771 36.7613 7.53779L45.6247 8.79633C46.3584 8.9005 46.8496 9.60512 46.6937 10.3295L42.9046 27.9307C42.7755 28.5303 42.2384 28.9535 41.6252 28.9386L34.1475 28.7576C33.3901 28.7392 32.815 28.0693 32.9117 27.3179L35.3151 8.63923Z" fill="white" stroke="white" stroke-width="1.70281"/>
<path d="M33.5597 29.6963C33.6369 29.0545 34.1814 28.5716 34.8278 28.5716L40.7448 28.5719C41.542 28.572 42.1444 29.2943 42.0011 30.0785L40.9518 35.8226C40.8384 36.443 40.2892 36.8878 39.6587 36.8697L34.1194 36.7105C33.3686 36.6889 32.7984 36.0271 32.8881 35.2814L33.5597 29.6963Z" fill="white" stroke="white" stroke-width="1.70281"/>
<path d="M36.8252 11.127C36.9139 10.4067 37.5842 9.90498 38.3003 10.0229L43.4357 10.8688C44.1554 10.9873 44.6298 11.6836 44.4768 12.3968L41.6823 25.421C41.5531 26.0232 41.0125 26.4474 40.3969 26.4297L36.3622 26.3137C35.6099 26.2921 35.0394 25.628 35.1314 24.881L36.8252 11.127Z" fill="#6AAF46" stroke="#6AAF46" stroke-width="1.70281"/>
<path d="M34.726 30.9906C34.8031 30.3489 35.3476 29.866 35.994 29.866L39.0565 29.8662C39.8537 29.8662 40.456 30.5886 40.3128 31.3728L39.7696 34.3464C39.6562 34.9668 39.107 35.4115 38.4765 35.3934L35.6095 35.311C34.8587 35.2894 34.2886 34.6277 34.3783 33.8819L34.726 30.9906Z" fill="#6AAF46" stroke="#6AAF46" stroke-width="1.70281"/>
</svg>
