<svg width="171" height="208" viewBox="0 0 171 208" fill="none" xmlns="http://www.w3.org/2000/svg">
<g clip-path="url(#clip0_4152_1145)">
<rect x="0.5" width="170.5" height="208" rx="12" fill="url(#paint0_linear_4152_1145)"/>
<path d="M84.4997 190.736C62.0956 172.86 45.9705 175.457 16.0372 188.649C13.4759 189.778 10.4632 188.631 9.34963 186.063L-29.6557 96.1137C-30.7595 93.5683 -29.5753 90.6051 -27.0246 89.5135C7.13793 74.8935 29.429 66.4559 52.4455 97.3427M84.4997 190.736C84.4997 190.736 57.8714 141.244 60.1669 140.75C62.4625 140.255 71.0186 142.628 72.8968 132.611C74.7749 122.594 52.4455 97.3427 52.4455 97.3427M84.4997 190.736C112.043 177.192 129.509 176.044 151.907 183.443C155.351 184.581 158.668 181.065 157.147 177.773L119.729 96.775C119.142 95.5036 118.036 94.5304 116.701 94.1071C87.1039 84.7218 79.2099 85.3065 52.4455 97.3427" stroke="#D18400" stroke-width="9.01525" stroke-linecap="round"/>
<path d="M-20.3079 104.939L-24.2982 95.3879C-24.5538 94.7762 -24.6854 94.1199 -24.6854 93.4571V92.5347C-24.6854 90.3123 -23.2209 88.3557 -21.0887 87.7293L10.9105 78.328C11.3287 78.2052 11.7612 78.1374 12.1969 78.1265L25.9688 77.7816C28.2805 77.7237 30.3313 79.2558 30.9312 81.489L31.3915 83.2022C32.5329 87.4508 28.0348 91.0014 24.1674 88.9046L19.6851 86.4745C16.6956 84.8537 12.9946 86.6196 12.3737 89.963L11.8342 92.8678C11.1595 96.5008 6.91763 98.1773 3.94149 95.9874L1.59959 94.2641C-0.800955 92.4976 -4.20354 93.2057 -5.70011 95.7832L-11.3553 105.523C-13.4341 109.103 -18.712 108.758 -20.3079 104.939Z" fill="#D18400" stroke="#D18400" stroke-width="9.01525" stroke-linecap="round"/>
<path d="M10.9593 113.897C15.133 120.241 31.9949 124.355 39.2572 111.646" stroke="#D18400" stroke-width="9.01525" stroke-linecap="round"/>
<path d="M41.6769 152.645C48.9392 165.354 59.7075 161.66 62.7125 157.751" stroke="#D18400" stroke-width="9.01525" stroke-linecap="round"/>
<path d="M102.779 158.549C114.549 152.288 118.556 150.788 130.325 156.297M83.1206 116.655C94.8905 110.394 98.8973 108.894 110.667 114.403M93.388 137.44C105.158 131.179 109.165 129.679 120.935 135.188" stroke="#D18400" stroke-width="9.01525" stroke-linecap="round"/>
<path d="M62.5843 53V36.6758H56.8831V33.2715H72.428V36.6758H66.7132V53H62.5843ZM78.2221 53.3008C76.7273 53.3008 75.4422 52.9954 74.3666 52.3848C73.2911 51.765 72.4617 50.8854 71.8784 49.7461C71.3041 48.6068 71.017 47.2578 71.017 45.6992V45.6855C71.017 44.127 71.3041 42.778 71.8784 41.6387C72.4617 40.4902 73.2774 39.6061 74.3256 38.9863C75.3829 38.3574 76.6271 38.043 78.058 38.043C79.489 38.043 80.7241 38.3483 81.7631 38.959C82.8113 39.5605 83.6179 40.4128 84.183 41.5156C84.7573 42.6185 85.0444 43.9082 85.0444 45.3848V46.6152H72.9721V44.0996H83.1577L81.2573 46.4512V44.9199C81.2573 44.0632 81.1251 43.3477 80.8608 42.7734C80.5965 42.1901 80.2273 41.7526 79.7534 41.4609C79.2885 41.1693 78.7462 41.0234 78.1264 41.0234C77.5066 41.0234 76.9552 41.1738 76.4721 41.4746C75.9981 41.7754 75.6245 42.2174 75.351 42.8008C75.0867 43.375 74.9545 44.0814 74.9545 44.9199V46.4648C74.9545 47.276 75.0867 47.9688 75.351 48.543C75.6245 49.1172 76.0118 49.5592 76.5131 49.8691C77.0144 50.1699 77.6114 50.3203 78.3041 50.3203C78.851 50.3203 79.325 50.2337 79.726 50.0605C80.1271 49.8874 80.4552 49.6686 80.7104 49.4043C80.9656 49.14 81.1388 48.8711 81.2299 48.5977L81.2573 48.5156H84.9213L84.8803 48.666C84.7709 49.2038 84.5567 49.7461 84.2377 50.293C83.9187 50.8398 83.4858 51.3411 82.9389 51.7969C82.4011 52.2526 81.7403 52.6172 80.9565 52.8906C80.1817 53.1641 79.2703 53.3008 78.2221 53.3008ZM87.6255 53V33.2715H91.6177V53H87.6255ZM96.8404 53L92.315 46.5195L94.8443 43.4844L101.448 53H96.8404ZM91.1255 48.6797V44.209H91.6998L96.649 38.3438H101.174L94.4068 46.041H93.5181L91.1255 48.6797ZM108.691 53.3008C107.342 53.3008 106.194 53.1048 105.246 52.7129C104.298 52.321 103.555 51.7786 103.017 51.0859C102.489 50.3841 102.17 49.5729 102.06 48.6523L102.047 48.5293H105.943L105.97 48.6523C106.098 49.2266 106.385 49.6732 106.832 49.9922C107.278 50.3112 107.898 50.4707 108.691 50.4707C109.202 50.4707 109.634 50.4115 109.99 50.293C110.345 50.1654 110.619 49.9876 110.81 49.7598C111.011 49.5319 111.111 49.2585 111.111 48.9395V48.9258C111.111 48.5339 110.97 48.2194 110.687 47.9824C110.405 47.7454 109.903 47.5449 109.183 47.3809L106.695 46.8613C105.747 46.6608 104.954 46.3737 104.316 46C103.687 45.6172 103.213 45.1478 102.894 44.5918C102.575 44.0267 102.416 43.3796 102.416 42.6504V42.6367C102.416 41.6979 102.666 40.8867 103.168 40.2031C103.669 39.5195 104.38 38.9909 105.3 38.6172C106.23 38.2344 107.315 38.043 108.554 38.043C109.849 38.043 110.947 38.2526 111.849 38.6719C112.761 39.082 113.458 39.638 113.941 40.3398C114.433 41.0417 114.693 41.821 114.72 42.6777V42.8145H111.043L111.029 42.7051C110.965 42.1764 110.719 41.7389 110.291 41.3926C109.871 41.0371 109.293 40.8594 108.554 40.8594C108.099 40.8594 107.702 40.9232 107.365 41.0508C107.028 41.1784 106.768 41.3607 106.586 41.5977C106.403 41.8255 106.312 42.099 106.312 42.418V42.4316C106.312 42.6777 106.371 42.901 106.49 43.1016C106.618 43.293 106.827 43.4616 107.119 43.6074C107.41 43.7533 107.802 43.8809 108.295 43.9902L110.783 44.5234C112.323 44.8424 113.426 45.321 114.091 45.959C114.766 46.597 115.103 47.4538 115.103 48.5293V48.543C115.103 49.5 114.83 50.334 114.283 51.0449C113.736 51.7559 112.98 52.3118 112.013 52.7129C111.056 53.1048 109.949 53.3008 108.691 53.3008Z" fill="#F7F9FB"/>
</g>
<defs>
<linearGradient id="paint0_linear_4152_1145" x1="174.5" y1="-4" x2="64" y2="241" gradientUnits="userSpaceOnUse">
<stop stop-color="#FFAD1F"/>
<stop offset="1" stop-color="#FFBE4D"/>
</linearGradient>
<clipPath id="clip0_4152_1145">
<rect x="0.5" width="170.5" height="208" rx="12" fill="white"/>
</clipPath>
</defs>
</svg>
