<svg width="107" height="102" viewBox="0 0 107 102" fill="none" xmlns="http://www.w3.org/2000/svg">
<path d="M24.3929 90.5554L4.50099 44.6832C3.93808 43.3851 4.54198 41.8739 5.84279 41.3173C23.265 33.8614 34.6329 29.5584 46.3709 45.31C60.0201 39.1718 64.0459 38.8736 79.1396 43.6599C79.8205 43.8758 80.3847 44.3721 80.6842 45.0205L99.7663 86.3276C100.542 88.0068 98.8506 89.7997 97.0942 89.2194C85.6716 85.4458 76.7643 86.0315 62.7178 92.9385C51.2922 83.8223 43.0687 85.1465 27.8034 91.8744C26.4972 92.4501 24.9608 91.865 24.3929 90.5554Z" fill="#F0F3ED"/>
<path d="M62.7179 92.9385C51.2922 83.8223 43.0687 85.1465 27.8034 91.8744C26.4972 92.4501 24.9608 91.865 24.3929 90.5554L4.50099 44.6832C3.93808 43.3851 4.54198 41.8739 5.84279 41.3173C23.265 33.8614 34.6329 29.5584 46.3709 45.31M62.7179 92.9385C62.7179 92.9385 49.1379 67.6989 50.3086 67.4467C51.4793 67.1946 55.8427 68.4048 56.8006 63.2961C57.7584 58.1875 46.3709 45.31 46.3709 45.31M62.7179 92.9385C76.7643 86.0315 85.6716 85.4458 97.0942 89.2194C98.8506 89.7997 100.542 88.0068 99.7663 86.3276L80.6842 45.0205C80.3847 44.3721 79.8205 43.8758 79.1396 43.6599C64.0459 38.8736 60.0201 39.1718 46.3709 45.31" stroke="#999999" stroke-width="4.59759" stroke-linecap="round"/>
<path d="M9.26756 49.1837L7.23259 44.3131C7.10226 44.0012 7.03516 43.6665 7.03516 43.3284V42.858C7.03516 41.7247 7.78199 40.7268 8.86938 40.4074L25.1883 35.6129C25.4016 35.5503 25.6221 35.5157 25.8443 35.5101L32.8677 35.3342C34.0466 35.3047 35.0925 36.0861 35.3984 37.2249L35.6332 38.0986C36.2153 40.2653 33.9213 42.0761 31.949 41.0068L29.6632 39.7674C28.1386 38.9409 26.2511 39.8414 25.9345 41.5465L25.6594 43.0279C25.3153 44.8806 23.152 45.7356 21.6342 44.6188L20.4399 43.74C19.2157 42.8391 17.4805 43.2002 16.7172 44.5147L13.8332 49.4816C12.7731 51.3074 10.0815 51.1318 9.26756 49.1837Z" fill="#999999" stroke="#999999" stroke-width="4.59759" stroke-linecap="round"/>
<path d="M38.893 76.9245C36.4936 70.7696 40.7239 72.2717 44.6267 70.7502C48.5295 69.2287 51.5049 67.5119 53.0264 71.4147C54.5478 75.3175 52.6174 79.7147 48.7146 81.2362C44.8118 82.7577 40.4145 80.8273 38.893 76.9245Z" fill="#6DA451"/>
<path d="M25.4258 53.554C27.5543 50.3186 36.1535 48.2209 39.8571 54.7022" stroke="#999999" stroke-width="4.59759" stroke-linecap="round"/>
<path d="M24.389 90.5554L4.49709 44.6832C3.93417 43.3851 4.53808 41.8739 5.83888 41.3173C23.261 33.8614 34.629 29.5584 46.367 45.31C60.0162 39.1718 64.042 38.8736 79.1357 43.6599C79.8166 43.8758 80.3808 44.3721 80.6803 45.0205L99.7624 86.3276C100.538 88.0068 98.8467 89.7997 97.0903 89.2194C85.6677 85.4458 76.7604 86.0315 62.7139 92.9385C51.2883 83.8223 43.0648 85.1465 27.7995 91.8744C26.4933 92.4501 24.9569 91.865 24.389 90.5554Z" fill="#F0F3ED"/>
<path d="M62.7139 92.9385C51.2883 83.8223 43.0648 85.1465 27.7995 91.8744C26.4933 92.4501 24.9569 91.865 24.389 90.5554L4.49709 44.6832C3.93417 43.3851 4.53808 41.8739 5.83888 41.3173C23.261 33.8614 34.629 29.5584 46.367 45.31M62.7139 92.9385C62.7139 92.9385 49.134 67.6989 50.3047 67.4467C51.4754 67.1946 55.8388 68.4048 56.7967 63.2961C57.7545 58.1875 46.367 45.31 46.367 45.31M62.7139 92.9385C76.7604 86.0315 85.6677 85.4458 97.0903 89.2194C98.8467 89.7997 100.538 88.0068 99.7624 86.3276L80.6803 45.0205C80.3808 44.3721 79.8166 43.8758 79.1357 43.6599C64.042 38.8736 60.0162 39.1718 46.367 45.31M26.5069 54.8314C28.6354 58.0667 37.2346 60.1644 40.9382 53.6831" stroke="#999999" stroke-width="4.59759" stroke-linecap="round"/>
<path d="M9.26365 49.1837L7.22868 44.3131C7.09836 44.0012 7.03125 43.6665 7.03125 43.3284V42.858C7.03125 41.7247 7.77808 40.7268 8.86548 40.4074L25.1844 35.6129C25.3977 35.5503 25.6182 35.5157 25.8404 35.5101L32.8638 35.3342C34.0427 35.3047 35.0886 36.0861 35.3945 37.2249L35.6293 38.0986C36.2113 40.2653 33.9174 42.0761 31.9451 41.0068L29.6593 39.7674C28.1347 38.9409 26.2472 39.8414 25.9306 41.5465L25.6555 43.0279C25.3114 44.8806 23.1481 45.7356 21.6303 44.6188L20.436 43.74C19.2118 42.8391 17.4766 43.2002 16.7133 44.5147L13.8293 49.4816C12.7692 51.3074 10.0776 51.1318 9.26365 49.1837Z" fill="#999999" stroke="#999999" stroke-width="4.59759" stroke-linecap="round"/>
<path d="M38.8891 76.9244C36.4897 70.7696 40.72 72.2717 44.6228 70.7502C48.5256 69.2287 51.501 67.5118 53.0224 71.4147C54.5439 75.3175 52.6135 79.7147 48.7107 81.2362C44.8079 82.7577 40.4106 80.8273 38.8891 76.9244Z" fill="#6DA451"/>
<path d="M24.3929 90.5554L4.50099 44.6832C3.93808 43.3851 4.54198 41.8739 5.84279 41.3173C23.265 33.8614 34.6329 29.5584 46.3709 45.31C60.0201 39.1718 64.0459 38.8736 79.1396 43.6599C79.8205 43.8758 80.3847 44.3721 80.6842 45.0205L99.7663 86.3276C100.542 88.0068 98.8506 89.7997 97.0942 89.2194C85.6716 85.4458 76.7643 86.0315 62.7178 92.9385C51.2922 83.8223 43.0687 85.1465 27.8034 91.8744C26.4972 92.4501 24.9608 91.865 24.3929 90.5554Z" fill="#F0F3ED"/>
<path d="M62.7179 92.9385C51.2922 83.8223 43.0687 85.1465 27.8034 91.8744C26.4972 92.4501 24.9608 91.865 24.3929 90.5554L4.50099 44.6832C3.93808 43.3851 4.54198 41.8739 5.84279 41.3173C23.265 33.8614 34.6329 29.5584 46.3709 45.31M62.7179 92.9385C62.7179 92.9385 49.1379 67.6989 50.3086 67.4467C51.4793 67.1946 55.8427 68.4048 56.8006 63.2961C57.7584 58.1875 46.3709 45.31 46.3709 45.31M62.7179 92.9385C76.7643 86.0315 85.6716 85.4458 97.0942 89.2194C98.8506 89.7997 100.542 88.0068 99.7663 86.3276L80.6842 45.0205C80.3847 44.3721 79.8205 43.8758 79.1396 43.6599C64.0459 38.8736 60.0201 39.1718 46.3709 45.31" stroke="#999999" stroke-width="4.59759" stroke-linecap="round"/>
<path d="M9.26756 49.1837L7.23259 44.3131C7.10226 44.0012 7.03516 43.6665 7.03516 43.3284V42.858C7.03516 41.7247 7.78199 40.7268 8.86938 40.4074L25.1883 35.6129C25.4016 35.5503 25.6221 35.5157 25.8443 35.5101L32.8677 35.3342C34.0466 35.3047 35.0925 36.0861 35.3984 37.2249L35.6332 38.0986C36.2153 40.2653 33.9213 42.0761 31.949 41.0068L29.6632 39.7674C28.1386 38.9409 26.2511 39.8414 25.9345 41.5465L25.6594 43.0279C25.3153 44.8806 23.152 45.7356 21.6342 44.6188L20.4399 43.74C19.2157 42.8391 17.4805 43.2002 16.7172 44.5147L13.8332 49.4816C12.7731 51.3074 10.0815 51.1318 9.26756 49.1837Z" fill="#999999" stroke="#999999" stroke-width="4.59759" stroke-linecap="round"/>
<path d="M25.2148 53.7526C27.3434 56.9879 35.9426 59.0856 39.6462 52.6043" stroke="#999999" stroke-width="4.59759" stroke-linecap="round"/>
<path d="M52.7918 76.2467C53.9915 79.3241 51.8763 78.573 49.9249 79.3338C47.9735 80.0945 46.4858 80.953 45.7251 79.0016C44.9644 77.0502 45.9296 74.8515 47.881 74.0908C49.8324 73.33 52.031 74.2953 52.7918 76.2467Z" fill="#999999"/>
</svg>
